<?xml version="1.0" standalone="no"?>
<!DOCTYPE svg PUBLIC "-//W3C//DTD SVG 20010904//EN"
 "http://www.w3.org/TR/2001/REC-SVG-20010904/DTD/svg10.dtd">
<svg version="1.0" xmlns="http://www.w3.org/2000/svg"
 width="500.000000pt" height="500.000000pt" viewBox="0 0 500.000000 500.000000"
 preserveAspectRatio="xMidYMid meet">

<g transform="translate(0.000000,500.000000) scale(0.100000,-0.100000)"
fill="#ebf832" stroke="none">
<path d="M2970 4825 c0 -12 -322 -1530 -326 -1534 -2 -2 -39 6 -83 18 -381
103 -801 70 -1115 -87 -141 -70 -223 -129 -331 -237 -117 -117 -184 -211 -261
-365 -113 -228 -163 -436 -171 -715 -8 -274 18 -426 102 -600 118 -243 338
-394 636 -435 160 -23 530 3 755 51 159 35 138 50 206 -151 148 -437 267 -590
505 -646 142 -34 386 3 549 83 102 49 198 142 242 233 124 254 56 597 -195
970 -201 299 -430 516 -715 674 -38 21 -68 43 -68 50 0 7 9 51 19 99 l19 87
-507 0 -508 0 -52 -237 c-29 -131 -54 -246 -57 -255 -5 -17 7 -18 148 -18
l153 0 29 -42 29 -41 -17 -86 c-10 -47 -25 -116 -33 -153 l-15 -66 -62 -11
c-84 -15 -199 -14 -267 3 -183 43 -266 230 -239 539 38 439 271 779 586 853
140 33 329 17 494 -41 113 -40 109 -29 72 -207 -18 -84 -32 -159 -32 -165 0
-10 152 -13 725 -13 399 0 725 2 725 5 0 7 98 467 106 501 l6 24 -402 0 -402
0 5 23 c13 49 397 1877 397 1887 0 7 -109 10 -325 10 -179 0 -325 -2 -325 -5z
m-194 -2901 c49 -30 114 -74 144 -97 236 -176 471 -469 595 -742 121 -266 119
-517 -6 -660 -49 -55 -145 -115 -185 -115 -50 0 -137 36 -201 84 -175 129
-305 317 -489 707 l-102 215 40 190 c21 104 41 195 44 203 6 20 31 -20 113
-184 53 -104 71 -131 89 -133 28 -4 52 14 52 40 0 28 -114 258 -171 342 -27
41 -49 81 -49 89 0 31 22 117 29 117 5 0 48 -25 97 -56z m371 -1670 c-3 -3
-12 -4 -19 -1 -8 3 -5 6 6 6 11 1 17 -2 13 -5z"/>
</g>
</svg>
