<?xml version="1.0" standalone="no"?>
<!DOCTYPE svg PUBLIC "-//W3C//DTD SVG 20010904//EN"
 "http://www.w3.org/TR/2001/REC-SVG-20010904/DTD/svg10.dtd">
<svg version="1.0" xmlns="http://www.w3.org/2000/svg"
 width="500.000000pt" height="500.000000pt" viewBox="0 0 500.000000 500.000000"
 preserveAspectRatio="xMidYMid meet">

<g transform="translate(0.000000,500.000000) scale(0.100000,-0.100000)"
fill="#000000" stroke="none">
<path d="M2809 3423 c-111 -538 -157 -738 -170 -737 -8 1 -49 9 -91 18 -147
31 -350 15 -473 -37 -277 -116 -437 -384 -439 -732 0 -186 30 -280 125 -380
52 -56 127 -98 205 -116 98 -22 301 -11 489 26 l30 6 33 -97 c63 -183 114
-263 196 -307 35 -19 56 -22 141 -21 161 1 272 57 327 163 47 90 38 233 -25
371 -72 161 -259 372 -401 454 -38 22 -70 45 -72 51 -3 7 -1 30 5 53 l9 42
-262 0 -262 0 -27 -123 c-15 -67 -27 -126 -27 -130 0 -4 33 -7 73 -7 59 0 77
-4 90 -18 21 -23 21 -35 1 -122 l-15 -69 -66 -7 c-191 -20 -267 105 -218 363
29 154 120 289 230 343 43 22 64 25 155 25 78 0 118 -5 155 -19 28 -10 54 -22
58 -26 4 -4 -1 -46 -12 -94 l-19 -86 376 2 377 3 27 125 c15 69 27 131 27 138
1 9 -46 12 -204 12 -113 0 -205 2 -205 4 0 5 196 938 204 969 4 16 -9 17 -164
17 l-169 0 -12 -57z m-49 -1478 c135 -90 283 -272 347 -430 27 -67 33 -93 33
-159 0 -98 -26 -151 -95 -192 -56 -32 -85 -27 -156 26 -75 56 -152 166 -228
323 l-67 139 20 103 c23 120 27 120 75 15 18 -38 36 -72 41 -75 15 -9 40 7 40
26 0 22 -37 99 -84 174 -20 33 -30 60 -28 78 4 35 10 33 102 -28z"/>
</g>
</svg>
